PathFileType	4	(X/Y/Z)	3_coords_data.trc
DataRate	CameraRate	NumFrames	NumMarkers	Units	OrigDataRate	OrigDataStartFrame	OrigNumFrames
30.0	30.0	6	21	m	30.0	41	81
Frame#	Time	THUMB_TIP	THUMB_IP	THUMB_MCP	THUMB_CMC	INDEX_TIP	INDEX_DIP	INDEX_PIP	INDEX_MCP	MIDDLE_TIP	MIDDLE_DIP	MIDDLE_PIP	MIDDLE_MCP	RING_TIP	RING_DIP	RING_PIP	RING_MCP	PINKY_TIP	PINKY_DIP	PINKY_PIP	PINKY_MCP	WRIST
X1	Y1	Z1	X2	Y2	Z2	X3	Y3	Z3	X4	Y4	Z4	X5	Y5	Z5	X6	Y6	Z6	X7	Y7	Z7	X8	Y8	Z8	X9	Y9	Z9	X10	Y10	Z10	X11	Y11	Z11	X12	Y12	Z12	X13	Y13	Z13	X14	Y14	Z14	X15	Y15	Z15	X16	Y16	Z16	X17	Y17	Z17	X18	Y18	Z18	X19	Y19	Z19	X20	Y20	Z20	X21	Y21	Z21
39	1.3333333333333275	0.4900669048525821	-0.01204641044773136	-0.17192932976867387	0.4890363546828276	-0.014664619764428122	-0.14912400262079933	0.4805493167367567	-0.022655853740101817	-0.12026346959647716	0.47700062179363456	-0.027804351035844443	-0.07609572412768062	0.5044289790221809	-0.025483248084001375	-0.09645316806758086	0.5222899201306215	-0.025817638018382216	-0.09943225619863766	0.5385107340860315	-0.012120093919319341	-0.1128959968853192	0.5025985327412942	0.010037144591173663	-0.11864114006579662	0.5052650807494122	-0.020768811043828328	-0.08155912523480047	0.523351116714453	-0.02164224647185853	-0.08119523840580511	0.5432383270054318	-0.0042764123466487725	-0.09353769448140398	0.508627667670558	0.02303574277940923	-0.10076931696708769	0.5058607799178255	-0.006892400734611948	-0.0706241052374682	0.5237195026774027	-0.007551392790855149	-0.06825097421150939	0.5420213662366871	0.007900589221887855	-0.07506698632528985	0.5110982326895278	0.033095666817892	-0.08167672993271424	0.5068020892255615	-0.00553123666837696	-0.05650567228209835	0.5235474907263906	-0.00587156853901849	-0.05297357619141074	0.5361622927363494	0.010726163588996473	-0.055462366551444764	0.5088149947866341	0.033789486306352534	-0.06005495744162648	0.462283081001861	-0.023011742144276925	-0.051989820119430985
40	1.3666666666666607	0.4902397834284046	-0.011705781140328053	-0.171830933601132	0.4890168272415547	-0.01437318111458219	-0.1490408182977292	0.48041378489194675	-0.022478255605292485	-0.1202464537478578	0.4770562721997378	-0.02773135181404518	-0.07607607805618821	0.5048013943185294	-0.025829653178587653	-0.0962048631229851	0.5225811799307255	-0.025695500939571625	-0.09964887629966024	0.538373681800945	-0.011665214063188434	-0.11327817444173277	0.5022836182580557	0.01028120763227025	-0.11870937893386019	0.505515248708656	-0.021027965891167177	-0.08133681642487234	0.5236190527191824	-0.021524805745728015	-0.08141050840117359	0.5431107803841819	-0.003827542306013898	-0.09391206707914829	0.5082836635497702	0.023281861290127104	-0.10086189374344556	0.5056529974887263	-0.0068135578181460765	-0.07064984356842885	0.5235475392864668	-0.0072541031819182145	-0.06850711315342728	0.5417733027693573	0.00825795737666335	-0.07539024483113321	0.5107279590234929	0.033357546950306516	-0.08178696812793096	0.5066867638625953	-0.005536523681843097	-0.05658650853644387	0.523464884135638	-0.005866639221914105	-0.053212237676907415	0.5359772006062359	0.010808619072279702	-0.05570015173521481	0.5086442150176265	0.033911286479110125	-0.0601787797061728	0.4622830810018608	-0.023011742144276925	-0.051989820119430985
41	1.3999999999999937	0.4904438356182558	-0.0109824619993385	-0.17175861388736613	0.488895817521143	-0.013771468235742712	-0.14900284353819304	0.480135373835049	-0.02211692786934849	-0.12032483925047044	0.4769670202852192	-0.027559902457904628	-0.07616348098997738	0.5059460472574905	-0.026357732427924274	-0.09597698274536876	0.5235384453015657	-0.02537560415036766	-0.1001654138484479	0.5381689987207581	-0.01043691056507845	-0.11412221053010069	0.5015803891532413	0.010837059906983915	-0.11884745383279244	0.5066469484049816	-0.02199425139541522	-0.0810432441037805	0.5247237822187144	-0.021396423752711224	-0.0819763471957834	0.5430131880449914	-0.0027014991431287827	-0.09483741162932746	0.5075711683741789	0.02378275434436794	-0.1010499376746457	0.5059988651273085	-0.007114511694758963	-0.07074930354050302	0.5239457151914872	-0.00679726488015675	-0.06907301978394098	0.5414735487956914	0.00939967453243118	-0.07618738425368077	0.5098885815816713	0.0339670936436427	-0.08197984472427156	0.5065895422808767	-0.006177365262445056	-0.056871736329641376	0.5234201817418564	-0.005675696047224954	-0.053793115967691874	0.5354328947924006	0.01136085724241298	-0.05629563393458237	0.5079913660731603	0.034407499144114784	-0.06038198311274012	0.4622830810018609	-0.023011742144276925	-0.051989820119430985
42	1.4333333333333271	0.4908719892545689	-0.010035556627183584	-0.17158066981500392	0.4888676409654892	-0.013028860655283192	-0.14888655782683774	0.4798103820854842	-0.021673373438036547	-0.12038991837006341	0.47689430180423775	-0.027367481359029	-0.07624285039519763	0.5083320233652627	-0.027120888004590338	-0.09584995496384502	0.5254888023556795	-0.024719538450536427	-0.10112996017153586	0.5382612069533959	-0.008515777352641196	-0.11549358227999335	0.5007931482862915	0.011419906450628181	-0.1190077230020607	0.5091518929116479	-0.023302388829683607	-0.08114391166784518	0.5270056635980915	-0.021007764262859108	-0.08313829637827863	0.5432949281201768	-0.0008202669012670194	-0.09642491978700257	0.506718066098278	0.02437721234067708	-0.10125897869053041	0.5076383137136592	-0.007957002776170952	-0.07102757320159414	0.5255629028144879	-0.006313574231202046	-0.07002345757875283	0.5417598765703243	0.011086825063800987	-0.07744397808119818	0.5091267883700208	0.03447806194999681	-0.08220343450447687	0.507748011254209	-0.00714262060192683	-0.05749338105590329	0.5245583621582625	-0.005505701354786896	-0.054712626147442545	0.5354596950301791	0.012259693787909809	-0.057235262871094816	0.5074845356409696	0.0347700276554066	-0.06063508306077525	0.4622830810018609	-0.023011742144276925	-0.051989820119430985
43	1.4666666666666603	0.49172230671878026	-0.00896262505535761	-0.17125540354575314	0.489113528392246	-0.012185991013476283	-0.14865442596638623	0.4795828536287796	-0.02117393573984805	-0.12041964089285129	0.4768687746493737	-0.027147626214273357	-0.07629664465042352	0.5121334202900217	-0.027873894591272097	-0.09609950108385801	0.5284941548543093	-0.02367704643068369	-0.10263500642268947	0.5386799530593213	-0.0060057160135513765	-0.11733138111903252	0.5001076711663818	0.011955741109395568	-0.11912057691384054	0.5131251176025964	-0.024586669488874557	-0.08182513268557445	0.5304362627742438	-0.020247869525343076	-0.08490718844798473	0.5439214585525254	0.0017101502828031911	-0.09852351728238323	0.5058794873091448	0.024956883968691113	-0.10144682326281312	0.5107551661592101	-0.009119160073844834	-0.07165781444765751	0.5284390268866478	-0.005623856476107081	-0.07140498539032791	0.5426545582201698	0.013317225614916106	-0.07910784571145402	0.508567216974043	0.034803002225828716	-0.08244482101793582	0.5103025324859598	-0.008306362320103178	-0.05851405234084894	0.5269231671701501	-0.005059730412574903	-0.05602128601571832	0.5361909122150845	0.013617380810279966	-0.05848835657636253	0.5072055278706415	0.034943337002457275	-0.06092444727546753	0.462283081001861	-0.023011742144276925	-0.051989820119430985
44	1.4999999999999936	0.4931511344851707	-0.007967615152950192	-0.17076020515103546	0.4897778154536636	-0.011428610016342655	-0.1482959617124675	0.4796620186022862	-0.02078938416116194	-0.12038778080665868	0.47690759671874217	-0.02699336179388323	-0.07629907679281689	0.5175436860275865	-0.028357392180166086	-0.09691291828632376	0.5325981139609915	-0.022088229052325326	-0.10479084905997477	0.5393687563290865	-0.0029584279182637285	-0.11963062478249209	0.49962685265376927	0.012339349626537599	-0.1191888234113071	0.5189517441023745	-0.02563264665255438	-0.08319431798341559	0.5352565765243673	-0.018931963870462365	-0.08734802595876823	0.5449417669147951	0.0048874396595095515	-0.10106818093520831	0.5052414050278717	0.025375218416997358	-0.10159743383464553	0.5155849334118928	-0.010201289171703598	-0.07279742172433312	0.532645817137536	-0.004399430972648166	-0.07331190004082488	0.5440324588344044	0.01628226058806448	-0.08123604062859135	0.5082027578599491	0.034958771496072516	-0.08269935959046215	0.5144954585714031	-0.009589005757322577	-0.05994441777053916	0.5305961479449249	-0.004214194123825843	-0.057735526283438476	0.5376226274586194	0.015438423565544035	-0.06001921247009023	0.5072532382294657	0.03485766954798403	-0.06123433975628223	0.462283081001861	-0.023011742144276925	-0.051989820119430985
